/* XPM */
static char * right_xpm[] = {
"12 19 3 1 11 0",
" 	c None",
".	c #000000",
"+	c #FFFFFF",
"           .",
"          ..",
"         .+.",
"        .++.",
"       .+++.",
"      .++++.",
"     .+++++.",
"    .++++++.",
"   .+++++++.",
"  .++++++++.",
" .+++++++++.",
".++++++++++.",
".....++++++.",
"    .++.+++.",
"   .++. .++.",
"   .++.  .+.",
"  .++.    ..",
"  .++.      ",
"   ..       "};
