/* XPM */
static char * closeO_xpm[] = {
"46 58 7 1",
" 	c #E81123",
".	c #FAD1D5",
"+	c #F16B76",
"@	c #FFFFFF",
"#	c #F1707A",
"$	c #FBE3E5",
"%	c #F6A6AC",
"                                              ",
"                                              ",
"                                              ",
"                                              ",
"                                              ",
"                                              ",
"                                              ",
"                                              ",
"                                              ",
"                  .+      +.                  ",
"                  +@+    +@+                  ",
"                   +@+  +@+                   ",
"                    +@++@+                    ",
"                     +@@+                     ",
"                     +@@+                     ",
"                    +@++@+                    ",
"                   +@+  +@+                   ",
"                  +@+    +@+                  ",
"                  .+      +.                  ",
"                                              ",
"                                              ",
"                                              ",
"                                              ",
"                                              ",
"                                              ",
"                                              ",
"                                              ",
"                                              ",
"                                              ",
"##############################################",
"##############################################",
"##############################################",
"##############################################",
"##############################################",
"##############################################",
"##############################################",
"##############################################",
"##############################################",
"##################$%######%$##################",
"##################%@%####%@%##################",
"###################%@%##%@%###################",
"####################%@%%@%####################",
"#####################%@@%#####################",
"#####################%@@%#####################",
"####################%@%%@%####################",
"###################%@%##%@%###################",
"##################%@%####%@%##################",
"##################$%######%$##################",
"##############################################",
"##############################################",
"##############################################",
"##############################################",
"##############################################",
"##############################################",
"##############################################",
"##############################################",
"##############################################",
"##############################################"};
