/* XPM */
static char * closeA_xpm[] = {
"46 58 7 1",
" 	c #FFFFFF",
".	c #000000",
"+	c #CCCCCC",
"@	c #050708",
"#	c #F1707A",
"$	c #FBE3E5",
"%	c #F6A6AC",
"                                              ",
"                                              ",
"                                              ",
"                                              ",
"                                              ",
"                                              ",
"                                              ",
"                                              ",
"                                              ",
"                  .+      +.                  ",
"                  +@+    +@+                  ",
"                   +@+  +@+                   ",
"                    +@++@+                    ",
"                     +@@+                     ",
"                     +@@+                     ",
"                    +@++@+                    ",
"                   +@+  +@+                   ",
"                  +@+    +@+                  ",
"                  .+      +.                  ",
"                                              ",
"                                              ",
"                                              ",
"                                              ",
"                                              ",
"                                              ",
"                                              ",
"                                              ",
"                                              ",
"                                              ",
"##############################################",
"##############################################",
"##############################################",
"##############################################",
"##############################################",
"##############################################",
"##############################################",
"##############################################",
"##############################################",
"##################$%######%$##################",
"##################% %####% %##################",
"###################% %##% %###################",
"####################% %% %####################",
"#####################%  %#####################",
"#####################%  %#####################",
"####################% %% %####################",
"###################% %##% %###################",
"##################% %####% %##################",
"##################$%######%$##################",
"##############################################",
"##############################################",
"##############################################",
"##############################################",
"##############################################",
"##############################################",
"##############################################",
"##############################################",
"##############################################",
"##############################################"};
