/* XPM */
static char * maximizeI_xpm[] = {
"46 58 4 1",
" 	c #E5E5E5",
".	c #000000",
"+	c #CACACB",
"@	c #000000",
"                                              ",
"                                              ",
"                                              ",
"                                              ",
"                                              ",
"                                              ",
"                                              ",
"                                              ",
"                                              ",
"                    ........                  ",
"                    .      .                  ",
"                  ........ .                  ",
"                  .      . .                  ",
"                  .      . .                  ",
"                  .      . .                  ",
"                  .      . .                  ",
"                  .      ...                  ",
"                  .      .                    ",
"                  ........                    ",
"                                              ",
"                                              ",
"                                              ",
"                                              ",
"                                              ",
"                                              ",
"                                              ",
"                                              ",
"                                              ",
"                                              ",
"++++++++++++++++++++++++++++++++++++++++++++++",
"++++++++++++++++++++++++++++++++++++++++++++++",
"++++++++++++++++++++++++++++++++++++++++++++++",
"++++++++++++++++++++++++++++++++++++++++++++++",
"++++++++++++++++++++++++++++++++++++++++++++++",
"++++++++++++++++++++++++++++++++++++++++++++++",
"++++++++++++++++++++++++++++++++++++++++++++++",
"++++++++++++++++++++++++++++++++++++++++++++++",
"++++++++++++++++++++++++++++++++++++++++++++++",
"++++++++++++++++++++@@@@@@@@++++++++++++++++++",
"++++++++++++++++++++@++++++@++++++++++++++++++",
"++++++++++++++++++@@@@@@@@+@++++++++++++++++++",
"++++++++++++++++++@++++++@+@++++++++++++++++++",
"++++++++++++++++++@++++++@+@++++++++++++++++++",
"++++++++++++++++++@++++++@+@++++++++++++++++++",
"++++++++++++++++++@++++++@+@++++++++++++++++++",
"++++++++++++++++++@++++++@@@++++++++++++++++++",
"++++++++++++++++++@++++++@++++++++++++++++++++",
"++++++++++++++++++@@@@@@@@++++++++++++++++++++",
"++++++++++++++++++++++++++++++++++++++++++++++",
"++++++++++++++++++++++++++++++++++++++++++++++",
"++++++++++++++++++++++++++++++++++++++++++++++",
"++++++++++++++++++++++++++++++++++++++++++++++",
"++++++++++++++++++++++++++++++++++++++++++++++",
"++++++++++++++++++++++++++++++++++++++++++++++",
"++++++++++++++++++++++++++++++++++++++++++++++",
"++++++++++++++++++++++++++++++++++++++++++++++",
"++++++++++++++++++++++++++++++++++++++++++++++",
"++++++++++++++++++++++++++++++++++++++++++++++"};
